<svg width="50" height="50" viewBox="0 0 50 50" fill="none" xmlns="http://www.w3.org/2000/svg">
<path d="M25.5128 0.388272C25.8507 0.221613 26.0197 0.138284 26.1994 0.120112C26.2663 0.113346 26.3337 0.113346 26.4006 0.120112C26.5803 0.138284 26.7493 0.221613 27.0873 0.388272L44.4617 8.95604C45.6849 9.5592 46.2964 9.86077 46.4087 10.3104C46.4484 10.4696 46.4484 10.636 46.4086 10.7952C46.2963 11.2448 45.6846 11.5462 44.4614 12.1491L27.0869 20.7122C26.7491 20.8787 26.5802 20.962 26.4006 20.9801C26.3337 20.9869 26.2663 20.9869 26.1995 20.9801C26.0199 20.962 25.8509 20.8787 25.5131 20.7122L8.13866 12.1491C6.91541 11.5462 6.30378 11.2448 6.1914 10.7952C6.15163 10.636 6.15161 10.4696 6.19135 10.3104C6.30363 9.86077 6.91519 9.5592 8.13831 8.95605L25.5128 0.388272Z" fill="url(#paint0_linear_136_26)"/>
<path d="M4.20001 15.196C4.20001 13.719 5.74604 12.7516 7.07442 13.3973L24.4348 21.8366C25.1234 22.1714 25.5604 22.8698 25.5604 23.6354V44.9717C25.5604 46.4488 24.0144 47.4162 22.686 46.7705L5.32561 38.3311C4.63706 37.9964 4.20001 37.298 4.20001 36.5324V15.196Z" fill="url(#paint1_linear_136_26)"/>
<path d="M29.8002 47.0527C28.4719 47.6985 26.9258 46.731 26.9258 45.254V23.9176C26.9258 23.152 27.3629 22.4536 28.0514 22.1189L45.4118 13.6796C46.7402 13.0338 48.2862 14.0013 48.2862 15.4783V36.8147C48.2862 37.5802 47.8492 38.2787 47.1606 38.6134L29.8002 47.0527Z" fill="url(#paint2_linear_136_26)"/>
<defs>
<linearGradient id="paint0_linear_136_26" x1="10.7643" y1="9.89593" x2="47.5" y2="10.5" gradientUnits="userSpaceOnUse">
<stop offset="0.31072" stop-color="#7F00FF"/>
<stop offset="0.461458" stop-color="#AD00FF"/>
<stop offset="0.9999" stop-color="#CC00FF"/>
<stop offset="1" stop-color="#FF00FF"/>
</linearGradient>
<linearGradient id="paint1_linear_136_26" x1="6.09224" y1="28.9485" x2="25.5" y2="29" gradientUnits="userSpaceOnUse">
<stop offset="0.408638" stop-color="#7F00FF"/>
<stop offset="0.648958" stop-color="#B900FF" stop-opacity="0.91442"/>
<stop offset="0.9999" stop-color="#CC00FF" stop-opacity="0.884984"/>
<stop offset="1" stop-color="#FF00FF" stop-opacity="0.81"/>
</linearGradient>
<linearGradient id="paint2_linear_136_26" x1="26.9" y1="34.95" x2="48.5" y2="35" gradientUnits="userSpaceOnUse">
<stop stop-color="#7F00FF"/>
<stop offset="0.9998" stop-color="#C100FF" stop-opacity="0.957069"/>
<stop offset="0.9999" stop-color="#DA00FF" stop-opacity="0.941381"/>
<stop offset="1" stop-color="#FF00FF" stop-opacity="0.89"/>
</linearGradient>
</defs>
</svg>
